<svg width="36" height="36" viewBox="0 0 36 36" fill="none" xmlns="http://www.w3.org/2000/svg">
<rect width="36" height="36" rx="18" fill="#0464B2"/>
<path fill-rule="evenodd" clip-rule="evenodd" d="M20.1483 20.8635V19.4316C20.4705 19.2719 21.3919 18.1751 21.4885 17.3182C21.7419 17.2988 22.14 17.0661 22.2575 16.1476C22.3205 15.6543 22.0699 15.3772 21.918 15.2899C21.918 15.2899 22.2961 14.5718 22.2961 13.7048C22.2961 11.9665 21.6138 10.4831 20.1483 10.4831C20.1483 10.4831 19.6392 9.40918 18.0004 9.40918C14.9634 9.40918 13.7048 11.3573 13.7048 13.7048C13.7048 14.4952 14.0828 15.2899 14.0828 15.2899C13.9311 15.3772 13.6805 15.655 13.7435 16.1476C13.8609 17.0661 14.2589 17.2988 14.5124 17.3182C14.609 18.1751 15.5305 19.2719 15.8526 19.4316V20.8635C15.1367 23.0113 9.40918 21.5794 9.40918 26.591H26.5917C26.5917 21.5794 20.8642 23.0113 20.1483 20.8635Z" fill="white"/>
</svg>
