<svg width="300" height="300" viewBox="0 0 300 300" fill="none" xmlns="http://www.w3.org/2000/svg">
<rect width="300" height="300" fill="#EBF9FF"/>
<path fill-rule="evenodd" clip-rule="evenodd" d="M150 64.896C140.027 64.896 130.462 68.8579 123.41 75.91C116.357 82.9621 112.396 92.5269 112.396 102.5C112.396 112.473 116.357 122.038 123.41 129.09C130.462 136.142 140.027 140.104 150 140.104C159.973 140.104 169.538 136.142 176.59 129.09C183.642 122.038 187.604 112.473 187.604 102.5C187.604 92.5269 183.642 82.9621 176.59 75.91C169.538 68.8579 159.973 64.896 150 64.896ZM124.271 102.5C124.271 95.6764 126.981 89.132 131.807 84.3069C136.632 79.4817 143.176 76.771 150 76.771C156.824 76.771 163.368 79.4817 168.193 84.3069C173.018 89.132 175.729 95.6764 175.729 102.5C175.729 109.324 173.018 115.868 168.193 120.693C163.368 125.519 156.824 128.229 150 128.229C143.176 128.229 136.632 125.519 131.807 120.693C126.981 115.868 124.271 109.324 124.271 102.5ZM150 151.979C131.689 151.979 114.81 156.143 102.31 163.173C89.9915 170.108 80.729 180.606 80.729 193.542V194.349C80.721 203.548 80.7131 215.091 90.8385 223.34C95.8181 227.393 102.793 230.283 112.214 232.183C121.65 234.099 133.961 235.104 150 235.104C166.039 235.104 178.341 234.099 187.794 232.183C197.215 230.283 204.181 227.393 209.169 223.34C219.294 215.091 219.279 203.548 219.271 194.349V193.542C219.271 180.606 210.008 170.108 197.698 163.173C185.189 156.143 168.319 151.979 150 151.979ZM92.604 193.542C92.604 186.805 97.5281 179.49 108.129 173.528C118.547 167.67 133.335 163.854 150.008 163.854C166.664 163.854 181.453 167.67 191.871 173.528C202.479 179.49 207.396 186.805 207.396 193.542C207.396 203.897 207.079 209.723 201.664 214.125C198.735 216.516 193.826 218.851 185.435 220.546C177.067 222.24 165.627 223.229 150 223.229C134.372 223.229 122.925 222.24 114.565 220.546C106.173 218.851 101.265 216.516 98.3356 214.133C92.9206 209.723 92.604 203.897 92.604 193.542Z" fill="#0E2E47"/>
</svg>
