<svg width="28" height="28" viewBox="0 0 28 28" fill="none" xmlns="http://www.w3.org/2000/svg">
<path d="M15.1716 13.5078C15.1115 13.3982 15.0364 13.2976 14.9485 13.2087L13.9455 12.2194C13.8425 12.1145 13.7209 12.0297 13.5868 11.9694C13.3758 11.8753 13.1413 11.8473 12.9141 11.889C12.6868 11.9306 12.4775 12.0401 12.3137 12.203C11.9659 12.5453 11.3293 13.1698 10.1809 14.3046C7.98461 16.4773 3.90656 20.119 2.0625 21.6721C1.96959 21.7498 1.89383 21.846 1.84003 21.9546C1.78624 22.0631 1.75556 22.1817 1.74996 22.3027C1.74436 22.4237 1.76394 22.5445 1.80748 22.6576C1.85102 22.7707 1.91756 22.8734 2.00289 22.9594L4.1357 25.1158C4.22159 25.2019 4.32437 25.2694 4.43758 25.3139C4.5508 25.3584 4.672 25.3791 4.79357 25.3745C4.91514 25.3699 5.03445 25.3402 5.144 25.2873C5.25355 25.2344 5.35098 25.1595 5.43015 25.0671C7.02921 23.1875 10.6966 19.1062 12.8677 16.9608C13.9827 15.8637 14.6078 15.2337 14.9616 14.8859C15.1371 14.7075 15.2519 14.4782 15.2896 14.2308C15.3273 13.9834 15.286 13.7304 15.1716 13.5078ZM26.1644 10.9922L24.288 9.13279C24.2594 9.10418 24.2252 9.08171 24.1876 9.06676C24.15 9.05181 24.1098 9.04469 24.0693 9.04584C24.0289 9.04516 23.9888 9.05249 23.9512 9.06742C23.9137 9.08234 23.8794 9.10456 23.8505 9.13279C23.783 9.20067 23.7008 9.2521 23.6103 9.2831C23.5197 9.31411 23.4232 9.32387 23.3283 9.31162C23.0833 9.28483 22.8224 9.20881 22.654 9.04584C22.2712 8.67069 22.7136 7.9324 22.3767 7.4599C21.992 6.94284 21.5701 6.45447 21.1145 5.99865C20.7284 5.61584 19.2109 4.16826 16.6548 3.12592C15.8391 2.79175 14.9659 2.6201 14.0845 2.62061C12.6434 2.62061 11.5355 3.26373 11.1313 3.63287C10.8098 3.92381 10.4751 4.38592 10.4751 4.38592C10.6683 4.31546 10.8658 4.25702 11.0662 4.21092C11.4843 4.12133 11.9133 4.09387 12.3394 4.12943C13.1903 4.19998 14.2157 4.5992 14.7659 5.03123C15.6523 5.74217 16.0335 6.69319 16.0931 7.92037C16.1369 8.83311 15.2602 9.98537 14.4284 10.9249C14.3553 11.0075 14.3167 11.1151 14.3208 11.2254C14.3248 11.3357 14.3712 11.4402 14.4503 11.5172L15.6119 12.6782C15.6928 12.7581 15.8016 12.8034 15.9154 12.8044C16.0291 12.8054 16.1387 12.7621 16.2211 12.6837C16.9829 11.9448 17.9213 11.1267 18.4534 10.7991C18.9855 10.4715 19.4148 10.3791 19.621 10.3567C20.0261 10.3175 20.4334 10.4058 20.7859 10.6094C20.8479 10.6445 20.9047 10.6883 20.9543 10.7395C21.3076 11.0983 21.2862 11.6845 20.9269 12.0378L20.8176 12.1412C20.7891 12.1691 20.7665 12.2025 20.7511 12.2393C20.7357 12.2761 20.7278 12.3156 20.7278 12.3555C20.7278 12.3954 20.7357 12.4349 20.7511 12.4717C20.7665 12.5085 20.7891 12.5419 20.8176 12.5699L22.6939 14.4293C22.7227 14.4576 22.7569 14.4799 22.7945 14.4947C22.8321 14.5096 22.8723 14.5167 22.9127 14.5157C22.9941 14.5168 23.0727 14.4858 23.1314 14.4293L26.1644 11.4297C26.2203 11.3706 26.2515 11.2923 26.2515 11.2109C26.2515 11.1296 26.2203 11.0513 26.1644 10.9922Z" stroke="white" stroke-width="1.75" stroke-linecap="round" stroke-linejoin="round"/>
</svg>
