<svg width="20" height="20" viewBox="0 0 20 20" fill="none" xmlns="http://www.w3.org/2000/svg">
<g clip-path="url(#clip0_705_514)">
<path d="M11.0825 2.62329L18.2775 15.085C18.3872 15.275 18.445 15.4905 18.445 15.7099C18.445 15.9294 18.3872 16.1449 18.2775 16.3349C18.1678 16.525 18.01 16.6828 17.82 16.7925C17.63 16.9022 17.4144 16.96 17.195 16.96H2.80499C2.58557 16.96 2.37002 16.9022 2.18 16.7925C1.98998 16.6828 1.83219 16.525 1.72248 16.3349C1.61278 16.1449 1.55502 15.9294 1.55502 15.7099C1.55502 15.4905 1.61278 15.275 1.72249 15.085L8.91749 2.62329C9.39833 1.78996 10.6008 1.78996 11.0825 2.62329ZM9.99999 4.08162L3.52666 15.2933H16.4733L9.99999 4.08162ZM9.99999 12.5C10.221 12.5 10.433 12.5878 10.5892 12.744C10.7455 12.9003 10.8333 13.1123 10.8333 13.3333C10.8333 13.5543 10.7455 13.7663 10.5892 13.9225C10.433 14.0788 10.221 14.1666 9.99999 14.1666C9.77898 14.1666 9.56702 14.0788 9.41074 13.9225C9.25446 13.7663 9.16666 13.5543 9.16666 13.3333C9.16666 13.1123 9.25446 12.9003 9.41074 12.744C9.56702 12.5878 9.77898 12.5 9.99999 12.5ZM9.99999 6.66662C10.221 6.66662 10.433 6.75442 10.5892 6.9107C10.7455 7.06698 10.8333 7.27894 10.8333 7.49996V10.8333C10.8333 11.0543 10.7455 11.2663 10.5892 11.4225C10.433 11.5788 10.221 11.6666 9.99999 11.6666C9.77898 11.6666 9.56702 11.5788 9.41074 11.4225C9.25446 11.2663 9.16666 11.0543 9.16666 10.8333V7.49996C9.16666 7.27894 9.25446 7.06698 9.41074 6.9107C9.56702 6.75442 9.77898 6.66662 9.99999 6.66662Z" fill="#FFCC00"/>
</g>
<defs>
<clipPath id="clip0_705_514">
<rect width="20" height="20" fill="white"/>
</clipPath>
</defs>
</svg>
