<svg width="20" height="20" viewBox="0 0 20 20" fill="none" xmlns="http://www.w3.org/2000/svg">
<path d="M15.8334 9.16657H5.95004L8.97504 5.53324C9.11649 5.36306 9.18454 5.14366 9.16422 4.9233C9.14391 4.70295 9.03689 4.49969 8.86671 4.35824C8.69653 4.21679 8.47713 4.14874 8.25677 4.16905C8.03642 4.18937 7.83316 4.29639 7.69171 4.46657L3.52504 9.46657C3.49701 9.50634 3.47194 9.54812 3.45004 9.59157C3.45004 9.63324 3.45004 9.65824 3.39171 9.6999C3.35394 9.79545 3.33416 9.89716 3.33337 9.9999C3.33416 10.1026 3.35394 10.2044 3.39171 10.2999C3.39171 10.3416 3.39171 10.3666 3.45004 10.4082C3.47194 10.4517 3.49701 10.4935 3.52504 10.5332L7.69171 15.5332C7.77006 15.6273 7.86818 15.703 7.97908 15.7548C8.08998 15.8067 8.21095 15.8334 8.33337 15.8332C8.52808 15.8336 8.71678 15.7658 8.86671 15.6416C8.95109 15.5716 9.02084 15.4857 9.07197 15.3887C9.12309 15.2918 9.15459 15.1857 9.16465 15.0765C9.17472 14.9674 9.16315 14.8573 9.13061 14.7527C9.09808 14.648 9.04521 14.5508 8.97504 14.4666L5.95004 10.8332H15.8334C16.0544 10.8332 16.2663 10.7454 16.4226 10.5892C16.5789 10.4329 16.6667 10.2209 16.6667 9.9999C16.6667 9.77889 16.5789 9.56693 16.4226 9.41065C16.2663 9.25437 16.0544 9.16657 15.8334 9.16657Z" fill="white"/>
</svg>
