<svg width="20" height="20" viewBox="0 0 20 20" fill="none" xmlns="http://www.w3.org/2000/svg">
<path d="M2.5 8.33334H17.5M5.83333 12.5H5.84167M9.16667 12.5H10.8333M2.5 6.66667C2.5 6.00363 2.76339 5.36775 3.23223 4.8989C3.70107 4.43006 4.33696 4.16667 5 4.16667H15C15.663 4.16667 16.2989 4.43006 16.7678 4.8989C17.2366 5.36775 17.5 6.00363 17.5 6.66667V13.3333C17.5 13.9964 17.2366 14.6323 16.7678 15.1011C16.2989 15.5699 15.663 15.8333 15 15.8333H5C4.33696 15.8333 3.70107 15.5699 3.23223 15.1011C2.76339 14.6323 2.5 13.9964 2.5 13.3333V6.66667Z" stroke="#093559" stroke-width="1.66667" stroke-linecap="round" stroke-linejoin="round"/>
</svg>
