<svg width="30" height="30" viewBox="0 0 30 30" fill="none" xmlns="http://www.w3.org/2000/svg">
<path fill-rule="evenodd" clip-rule="evenodd" d="M19.2724 7.05364C19.1 6.77819 18.846 6.56333 18.5458 6.43899C18.2456 6.31465 17.9141 6.287 17.5974 6.35989L15.3499 6.87614C15.1196 6.92908 14.8802 6.92908 14.6499 6.87614L12.4024 6.35989C12.0857 6.287 11.7542 6.31465 11.454 6.43899C11.1538 6.56333 10.8998 6.77819 10.7274 7.05364L9.50238 9.00864C9.37738 9.20864 9.20863 9.37739 9.00863 9.50364L7.05363 10.7286C6.77866 10.9009 6.56412 11.1544 6.4398 11.4542C6.31548 11.7539 6.28755 12.0848 6.35988 12.4011L6.87613 14.6511C6.92888 14.8811 6.92888 15.12 6.87613 15.3499L6.35988 17.5986C6.28727 17.9151 6.31506 18.2464 6.43939 18.5463C6.56372 18.8463 6.77842 19.1001 7.05363 19.2724L9.00863 20.4974C9.20863 20.6224 9.37738 20.7911 9.50363 20.9911L10.7286 22.9461C11.0811 23.5099 11.7536 23.7886 12.4024 23.6399L14.6499 23.1236C14.8802 23.0707 15.1196 23.0707 15.3499 23.1236L17.5986 23.6399C17.9151 23.7125 18.2464 23.6847 18.5463 23.5604C18.8463 23.436 19.1001 23.2214 19.2724 22.9461L20.4974 20.9911C20.6224 20.7911 20.7911 20.6224 20.9911 20.4974L22.9474 19.2724C23.2226 19.0998 23.4372 18.8458 23.5613 18.5456C23.6854 18.2454 23.7129 17.9139 23.6399 17.5974L23.1249 15.3499C23.0719 15.1196 23.0719 14.8802 23.1249 14.6499L23.6411 12.4011C23.7139 12.0848 23.6863 11.7536 23.5622 11.4537C23.4381 11.1537 23.2236 10.8999 22.9486 10.7274L20.9924 9.50239C20.7927 9.37716 20.6239 9.20836 20.4986 9.00864L19.2724 7.05364ZM18.6436 12.2124C18.7209 12.0702 18.7401 11.9036 18.6971 11.7476C18.654 11.5916 18.5522 11.4584 18.4129 11.3759C18.2736 11.2935 18.1078 11.2683 17.9504 11.3057C17.7929 11.343 17.6561 11.44 17.5686 11.5761L14.2999 17.1086L12.3261 15.2186C12.2676 15.1585 12.1975 15.1108 12.1201 15.0783C12.0427 15.0459 11.9596 15.0293 11.8757 15.0297C11.7917 15.0301 11.7087 15.0473 11.6316 15.0805C11.5545 15.1136 11.4849 15.1619 11.4269 15.2226C11.3688 15.2832 11.3236 15.3549 11.2939 15.4334C11.2642 15.5119 11.2506 15.5955 11.2539 15.6794C11.2572 15.7633 11.2774 15.8456 11.3132 15.9215C11.349 15.9974 11.3998 16.0653 11.4624 16.1211L14.0049 18.5574C14.0729 18.6225 14.1548 18.6713 14.2444 18.7003C14.334 18.7293 14.4289 18.7377 14.5222 18.7248C14.6155 18.7119 14.7046 18.6782 14.783 18.626C14.8614 18.5739 14.927 18.5047 14.9749 18.4236L18.6436 12.2124Z" fill="white"/>
</svg>
