<svg width="60" height="60" viewBox="0 0 60 60" fill="none" xmlns="http://www.w3.org/2000/svg">
<path fill-rule="evenodd" clip-rule="evenodd" d="M38.5448 14.1075C38.2 13.5566 37.692 13.1269 37.0916 12.8782C36.4911 12.6295 35.8281 12.5742 35.1948 12.72L30.6998 13.7525C30.2391 13.8584 29.7604 13.8584 29.2998 13.7525L24.8048 12.72C24.1714 12.5742 23.5084 12.6295 22.908 12.8782C22.3075 13.1269 21.7995 13.5566 21.4548 14.1075L19.0048 18.0175C18.7548 18.4175 18.4173 18.755 18.0173 19.0075L14.1073 21.4575C13.5573 21.802 13.1282 22.3091 12.8796 22.9085C12.631 23.5079 12.5751 24.1699 12.7198 24.8025L13.7523 29.3025C13.8578 29.7624 13.8578 30.2401 13.7523 30.7L12.7198 35.1975C12.5745 35.8305 12.6301 36.493 12.8788 37.0929C13.1274 37.6928 13.5568 38.2004 14.1073 38.545L18.0173 40.995C18.4173 41.245 18.7548 41.5825 19.0073 41.9825L21.4573 45.8925C22.1623 47.02 23.5073 47.5775 24.8048 47.28L29.2998 46.2475C29.7604 46.1416 30.2391 46.1416 30.6998 46.2475L35.1973 47.28C35.8302 47.4252 36.4927 47.3696 37.0927 47.121C37.6926 46.8723 38.2001 46.4429 38.5448 45.8925L40.9948 41.9825C41.2448 41.5825 41.5823 41.245 41.9823 40.995L45.8948 38.545C46.4452 38.1999 46.8744 37.6917 47.1226 37.0913C47.3709 36.4909 47.4258 35.8281 47.2798 35.195L46.2498 30.7C46.1439 30.2393 46.1439 29.7607 46.2498 29.3L47.2823 24.8025C47.4277 24.1698 47.3725 23.5075 47.1243 22.9076C46.8761 22.3077 46.4472 21.8 45.8973 21.455L41.9848 19.005C41.5853 18.7545 41.2477 18.4169 40.9973 18.0175L38.5448 14.1075ZM37.2873 24.425C37.4419 24.1407 37.4802 23.8074 37.3941 23.4954C37.3081 23.1834 37.1043 22.917 36.8258 22.7521C36.5473 22.5872 36.2157 22.5369 35.9007 22.6115C35.5858 22.6862 35.3121 22.8801 35.1373 23.1525L28.5998 34.2175L24.6523 30.4375C24.5352 30.3172 24.395 30.2218 24.2402 30.1569C24.0855 30.092 23.9192 30.0589 23.7513 30.0596C23.5835 30.0604 23.4175 30.0949 23.2633 30.1612C23.1091 30.2274 22.9698 30.3241 22.8537 30.4453C22.7377 30.5666 22.6472 30.71 22.5878 30.867C22.5283 31.0239 22.5011 31.1913 22.5078 31.359C22.5144 31.5267 22.5547 31.6914 22.6264 31.8432C22.698 31.995 22.7995 32.1308 22.9248 32.2425L28.0098 37.115C28.1459 37.2451 28.3096 37.3428 28.4888 37.4008C28.6679 37.4588 28.8578 37.4755 29.0444 37.4498C29.2309 37.4241 29.4092 37.3566 29.566 37.2523C29.7228 37.148 29.854 37.0096 29.9498 36.8475L37.2873 24.425Z" fill="#FFCC00"/>
</svg>
