<svg width="22" height="22" viewBox="0 0 22 22" fill="none" xmlns="http://www.w3.org/2000/svg">
<path d="M18.3614 7.07609L13.5489 2.26359C13.485 2.19977 13.4092 2.14916 13.3257 2.11466C13.2423 2.08015 13.1528 2.06243 13.0625 2.0625H4.8125C4.44783 2.0625 4.09809 2.20737 3.84023 2.46523C3.58237 2.72309 3.4375 3.07283 3.4375 3.4375V18.5625C3.4375 18.9272 3.58237 19.2769 3.84023 19.5348C4.09809 19.7926 4.44783 19.9375 4.8125 19.9375H17.1875C17.5522 19.9375 17.9019 19.7926 18.1598 19.5348C18.4176 19.2769 18.5625 18.9272 18.5625 18.5625V7.5625C18.5626 7.47219 18.5448 7.38275 18.5103 7.29929C18.4758 7.21583 18.4252 7.13999 18.3614 7.07609ZM13.75 4.40945L16.2155 6.875H13.75V4.40945ZM17.1875 18.5625H4.8125V3.4375H12.375V7.5625C12.375 7.74484 12.4474 7.9197 12.5764 8.04864C12.7053 8.17757 12.8802 8.25 13.0625 8.25H17.1875V18.5625Z" fill="#0464B2"/>
</svg>
