<svg width="40" height="40" viewBox="0 0 40 40" fill="none" xmlns="http://www.w3.org/2000/svg">
<g clip-path="url(#clip0_377_7695)">
<path fill-rule="evenodd" clip-rule="evenodd" d="M30 6.66667C30 6.22464 29.8244 5.80072 29.5118 5.48816C29.1993 5.17559 28.7754 5 28.3333 5C27.8913 5 27.4674 5.17559 27.1548 5.48816C26.8423 5.80072 26.6667 6.22464 26.6667 6.66667V8.33333H6.66667C6.22464 8.33333 5.80072 8.50893 5.48816 8.82149C5.17559 9.13405 5 9.55797 5 10C5 10.442 5.17559 10.866 5.48816 11.1785C5.80072 11.4911 6.22464 11.6667 6.66667 11.6667H26.6667V13.3333C26.6667 13.7754 26.8423 14.1993 27.1548 14.5118C27.4674 14.8244 27.8913 15 28.3333 15C28.7754 15 29.1993 14.8244 29.5118 14.5118C29.8244 14.1993 30 13.7754 30 13.3333V11.6667H33.3333C33.7754 11.6667 34.1993 11.4911 34.5118 11.1785C34.8244 10.866 35 10.442 35 10C35 9.55797 34.8244 9.13405 34.5118 8.82149C34.1993 8.50893 33.7754 8.33333 33.3333 8.33333H30V6.66667ZM6.66667 18.3333C6.22464 18.3333 5.80072 18.5089 5.48816 18.8215C5.17559 19.134 5 19.558 5 20C5 20.442 5.17559 20.8659 5.48816 21.1785C5.80072 21.4911 6.22464 21.6667 6.66667 21.6667H10V23.3333C10 23.7754 10.1756 24.1993 10.4882 24.5118C10.8007 24.8244 11.2246 25 11.6667 25C12.1087 25 12.5326 24.8244 12.8452 24.5118C13.1577 24.1993 13.3333 23.7754 13.3333 23.3333V21.6667H33.3333C33.7754 21.6667 34.1993 21.4911 34.5118 21.1785C34.8244 20.8659 35 20.442 35 20C35 19.558 34.8244 19.134 34.5118 18.8215C34.1993 18.5089 33.7754 18.3333 33.3333 18.3333H13.3333V16.6667C13.3333 16.2246 13.1577 15.8007 12.8452 15.4882C12.5326 15.1756 12.1087 15 11.6667 15C11.2246 15 10.8007 15.1756 10.4882 15.4882C10.1756 15.8007 10 16.2246 10 16.6667V18.3333H6.66667ZM5 30C5 29.558 5.17559 29.134 5.48816 28.8215C5.80072 28.5089 6.22464 28.3333 6.66667 28.3333H26.6667V26.6667C26.6667 26.2246 26.8423 25.8007 27.1548 25.4882C27.4674 25.1756 27.8913 25 28.3333 25C28.7754 25 29.1993 25.1756 29.5118 25.4882C29.8244 25.8007 30 26.2246 30 26.6667V28.3333H33.3333C33.7754 28.3333 34.1993 28.5089 34.5118 28.8215C34.8244 29.134 35 29.558 35 30C35 30.442 34.8244 30.866 34.5118 31.1785C34.1993 31.4911 33.7754 31.6667 33.3333 31.6667H30V33.3333C30 33.7754 29.8244 34.1993 29.5118 34.5118C29.1993 34.8244 28.7754 35 28.3333 35C27.8913 35 27.4674 34.8244 27.1548 34.5118C26.8423 34.1993 26.6667 33.7754 26.6667 33.3333V31.6667H6.66667C6.22464 31.6667 5.80072 31.4911 5.48816 31.1785C5.17559 30.866 5 30.442 5 30Z" fill="white"/>
</g>
<defs>
<clipPath id="clip0_377_7695">
<rect width="40" height="40" fill="white"/>
</clipPath>
</defs>
</svg>
