<svg width="24" height="24" viewBox="0 0 24 24" fill="none" xmlns="http://www.w3.org/2000/svg">
<path d="M10.98 4.20001C12.0735 4.20001 12.96 3.31353 12.96 2.22001C12.96 1.12648 12.0735 0.240005 10.98 0.240005C9.88648 0.240005 9 1.12648 9 2.22001C9 3.31353 9.88648 4.20001 10.98 4.20001Z" fill="#093559"/>
<path d="M10.5597 4.8H9.11973C7.76613 4.8 6.71973 5.62512 6.71973 7.00176V12.96C6.71973 13.92 8.15973 13.92 8.15973 12.96V7.2H8.63973V22.56C8.63973 23.1518 9.00837 23.52 9.59973 23.52C10.1925 23.52 10.5597 23.1518 10.5597 22.56V4.8ZM16.7997 12L14.8716 7.02864C14.704 5.91456 13.5789 4.8 12.2949 4.8H11.0397V16.2158C11.2797 16.2168 11.5197 16.2518 11.5197 16.32V22.56C11.5197 23.0592 11.9599 23.52 12.4797 23.52C13.001 23.52 13.4397 23.0587 13.4397 22.56V16.32H15.2968C15.4706 16.32 15.798 16.0061 15.798 15.84C15.798 15.8016 15.8119 15.3931 15.798 15.36L12.9616 7.56624L12.9453 7.48608C12.9453 7.37232 13.0408 7.28016 13.1599 7.28016C13.2612 7.28016 13.3461 7.34784 13.3687 7.43808L15.2968 12.48C15.425 12.7685 15.952 12.96 16.2986 12.96C16.7618 12.96 16.8098 12.0504 16.7997 12Z" fill="#093559"/>
</svg>
