<svg width="20" height="20" viewBox="0 0 20 20" fill="none" xmlns="http://www.w3.org/2000/svg">
<path d="M9.16669 9.14998C9.16669 8.92897 9.25448 8.717 9.41076 8.56072C9.56705 8.40444 9.77901 8.31665 10 8.31665C10.221 8.31665 10.433 8.40444 10.5893 8.56072C10.7456 8.717 10.8334 8.92897 10.8334 9.14998V14.15C10.8334 14.371 10.7456 14.583 10.5893 14.7392C10.433 14.8955 10.221 14.9833 10 14.9833C9.77901 14.9833 9.56705 14.8955 9.41076 14.7392C9.25448 14.583 9.16669 14.371 9.16669 14.15V9.14998ZM10 5.04248C9.77901 5.04248 9.56705 5.13028 9.41076 5.28656C9.25448 5.44284 9.16669 5.6548 9.16669 5.87581C9.16669 6.09683 9.25448 6.30879 9.41076 6.46507C9.56705 6.62135 9.77901 6.70915 10 6.70915C10.221 6.70915 10.433 6.62135 10.5893 6.46507C10.7456 6.30879 10.8334 6.09683 10.8334 5.87581C10.8334 5.6548 10.7456 5.44284 10.5893 5.28656C10.433 5.13028 10.221 5.04248 10 5.04248Z" fill="white"/>
<path fill-rule="evenodd" clip-rule="evenodd" d="M10 1.66663C5.3975 1.66663 1.66667 5.39746 1.66667 9.99996C1.66667 14.6025 5.3975 18.3333 10 18.3333C14.6025 18.3333 18.3333 14.6025 18.3333 9.99996C18.3333 5.39746 14.6025 1.66663 10 1.66663ZM3.33334 9.99996C3.33334 11.7681 4.03572 13.4638 5.28596 14.714C6.5362 15.9642 8.23189 16.6666 10 16.6666C11.7681 16.6666 13.4638 15.9642 14.714 14.714C15.9643 13.4638 16.6667 11.7681 16.6667 9.99996C16.6667 8.23185 15.9643 6.53616 14.714 5.28591C13.4638 4.03567 11.7681 3.33329 10 3.33329C8.23189 3.33329 6.5362 4.03567 5.28596 5.28591C4.03572 6.53616 3.33334 8.23185 3.33334 9.99996Z" fill="white"/>
</svg>
