<svg width="22" height="22" viewBox="0 0 22 22" fill="none" xmlns="http://www.w3.org/2000/svg">
<path fill-rule="evenodd" clip-rule="evenodd" d="M14 7V9H16V7C16 4.23853 13.7615 2 11 2C8.23853 2 6 4.23853 6 7V9H8V7C8 5.34314 9.34314 4 11 4C12.6569 4 14 5.34314 14 7ZM4 11C4 10.4478 4.44775 10 5 10H17C17.5522 10 18 10.4478 18 11V19C18 19.5522 17.5522 20 17 20H5C4.44775 20 4 19.5522 4 19V11ZM10 14C10 13.4478 10.4478 13 11 13C11.5522 13 12 13.4478 12 14V16C12 16.5522 11.5522 17 11 17C10.4478 17 10 16.5522 10 16V14Z" fill="#C8102E"/>
</svg>
