<svg width="28" height="28" viewBox="0 0 28 28" fill="none" xmlns="http://www.w3.org/2000/svg">
<path d="M14.8398 12.5998C14.2798 12.4598 13.7198 12.1798 13.2998 11.7598C12.8798 11.6198 12.7398 11.1998 12.7398 10.9198C12.7398 10.6398 12.8798 10.2198 13.1598 10.0798C13.5798 9.7998 13.9998 9.51981 14.4198 9.65981C15.2598 9.65981 15.9598 10.0798 16.3798 10.6398L17.6398 8.95981C17.2198 8.53981 16.7998 8.2598 16.3798 7.9798C15.9598 7.6998 15.3998 7.5598 14.8398 7.5598V5.5998H13.1598V7.5598C12.4598 7.69981 11.7598 8.1198 11.1998 8.6798C10.6398 9.37981 10.2198 10.2198 10.3598 11.0598C10.3598 11.8998 10.6398 12.7398 11.1998 13.2998C11.8998 13.9998 12.8798 14.4198 13.7198 14.8398C14.1398 14.9798 14.6998 15.2598 15.1198 15.5398C15.3998 15.8198 15.5398 16.2398 15.5398 16.6598C15.5398 17.0798 15.3998 17.4998 15.1198 17.9198C14.6998 18.3398 14.1398 18.4798 13.7198 18.4798C13.1598 18.4798 12.4598 18.3398 12.0398 17.9198C11.6198 17.6398 11.1998 17.2198 10.9198 16.7998L9.51981 18.3398C9.93981 18.8998 10.3598 19.3198 10.9198 19.7398C11.6198 20.1598 12.4598 20.5798 13.2998 20.5798V22.3998H14.8398V20.2998C15.6798 20.1598 16.3798 19.7398 16.9398 19.1798C17.6398 18.4798 18.0598 17.3598 18.0598 16.3798C18.0598 15.5398 17.7798 14.5598 17.0798 13.9998C16.3798 13.2998 15.6798 12.8798 14.8398 12.5998ZM13.9998 2.7998C7.83981 2.7998 2.7998 7.83981 2.7998 13.9998C2.7998 20.1598 7.83981 25.1998 13.9998 25.1998C20.1598 25.1998 25.1998 20.1598 25.1998 13.9998C25.1998 7.83981 20.1598 2.7998 13.9998 2.7998ZM13.9998 23.6598C8.67981 23.6598 4.3398 19.3198 4.3398 13.9998C4.3398 8.67981 8.67981 4.3398 13.9998 4.3398C19.3198 4.3398 23.6598 8.67981 23.6598 13.9998C23.6598 19.3198 19.3198 23.6598 13.9998 23.6598Z" fill="#09AEEF"/>
</svg>
