<svg width="18" height="18" viewBox="0 0 18 18" fill="none" xmlns="http://www.w3.org/2000/svg">
<g clip-path="url(#clip0_413_3019)">
<path d="M10.7703 3.05925C10.7703 3.05925 10.8565 4.53675 12.16 5.8395C13.4635 7.143 14.9403 7.23 14.9403 7.23L15.6355 6.53475C16.1886 5.98167 16.4993 5.23154 16.4993 4.44938C16.4993 3.66721 16.1886 2.91708 15.6355 2.364C15.0825 1.81092 14.3323 1.50021 13.5502 1.50021C12.768 1.50021 12.0179 1.81092 11.4648 2.364L10.7695 3.05925L8.99954 4.82925M14.9403 7.22925L10.9953 11.1758L8.66954 13.5L8.54954 13.6208C8.11604 14.0535 7.89929 14.2703 7.66079 14.4563C7.37934 14.6759 7.0748 14.8643 6.75254 15.018C6.47954 15.1478 6.18929 15.2445 5.60804 15.438L3.14729 16.2585M3.14729 16.2585L2.54579 16.4595C2.40558 16.5065 2.25504 16.5135 2.11108 16.4796C1.96713 16.4458 1.83547 16.3725 1.7309 16.2679C1.62633 16.1633 1.553 16.0317 1.51915 15.8877C1.4853 15.7438 1.49228 15.5932 1.53929 15.453L1.74029 14.8515M3.14729 16.2585L1.74029 14.8515M1.74029 14.8515L2.56079 12.3908C2.75429 11.8095 2.85104 11.5193 2.98079 11.2463C3.13454 10.9238 3.32279 10.6193 3.54254 10.338C3.72854 10.0995 3.94529 9.88275 4.37804 9.45L6.37454 7.45425" stroke="white" stroke-width="1.5" stroke-linecap="round"/>
</g>
<defs>
<clipPath id="clip0_413_3019">
<rect width="18" height="18" fill="white"/>
</clipPath>
</defs>
</svg>
