<svg width="18" height="18" viewBox="0 0 18 18" fill="none" xmlns="http://www.w3.org/2000/svg">
<g clip-path="url(#clip0_420_4802)">
<path fill-rule="evenodd" clip-rule="evenodd" d="M4.25208 3.57001C4.27218 3.39964 4.33179 3.23632 4.42616 3.09306C4.52053 2.9498 4.64705 2.83056 4.79564 2.74483C4.94423 2.6591 5.11079 2.60925 5.28204 2.59925C5.4533 2.58926 5.62452 2.61939 5.78208 2.68726C6.57858 3.02776 8.36358 3.83701 10.6286 5.14426C12.8943 6.45226 14.4881 7.59451 15.1803 8.11276C15.7713 8.55601 15.7728 9.43501 15.1811 9.87976C14.4956 10.395 12.9213 11.5223 10.6286 12.8468C8.33358 14.1713 6.56958 14.9708 5.78058 15.3068C5.10108 15.597 4.34058 15.1568 4.25208 14.424C4.14858 13.5675 3.95508 11.6228 3.95508 8.99626C3.95508 6.37126 4.14783 4.42726 4.25208 3.57001Z" fill="white"/>
</g>
<defs>
<clipPath id="clip0_420_4802">
<rect width="18" height="18" fill="white"/>
</clipPath>
</defs>
</svg>
