<svg width="21" height="21" viewBox="0 0 21 21" fill="none" xmlns="http://www.w3.org/2000/svg">
<path d="M9.87266 11.3553C10.5143 10.197 11.7477 9.51364 12.4643 8.48864C13.2227 7.41364 12.7977 5.40531 10.6477 5.40531C9.23932 5.40531 8.54766 6.47197 8.25599 7.35531L6.09766 6.44697C6.68932 4.67197 8.29766 3.14697 10.6393 3.14697C12.5977 3.14697 13.9393 4.03864 14.6227 5.15531C15.206 6.11364 15.5477 7.90531 14.6477 9.23864C13.6477 10.7136 12.6893 11.1636 12.1727 12.1136C11.9643 12.497 11.881 12.747 11.881 13.9803H9.47266C9.46432 13.3303 9.36432 12.272 9.87266 11.3553ZM12.3143 17.3136C12.3143 18.2303 11.5643 18.9803 10.6477 18.9803C9.73099 18.9803 8.98099 18.2303 8.98099 17.3136C8.98099 16.397 9.73099 15.647 10.6477 15.647C11.5643 15.647 12.3143 16.397 12.3143 17.3136Z" fill="white"/>
</svg>
