<svg width="18" height="18" viewBox="0 0 18 18" fill="none" xmlns="http://www.w3.org/2000/svg">
<path d="M17.0862 6.75352C17.0007 6.49148 16.8401 6.26034 16.6244 6.08883C16.4086 5.91732 16.1472 5.813 15.8726 5.78883L11.8648 5.44219L10.2968 1.70578C10.189 1.45169 10.0087 1.23496 9.77855 1.08261C9.54836 0.930254 9.27843 0.849014 9.00239 0.849014C8.72636 0.849014 8.45643 0.930254 8.22624 1.08261C7.99606 1.23496 7.8158 1.45169 7.70794 1.70578L6.13786 5.44219L2.13005 5.78883C1.854 5.81169 1.59084 5.91556 1.3736 6.08742C1.15636 6.25929 0.99472 6.49148 0.908952 6.75486C0.823184 7.01825 0.817113 7.3011 0.8915 7.56793C0.965887 7.83475 1.11742 8.07366 1.32708 8.25469L4.37302 10.9125L3.45896 14.8669C3.39627 15.1361 3.41435 15.4179 3.51093 15.677C3.60751 15.936 3.7783 16.1609 4.00197 16.3234C4.22563 16.4859 4.49223 16.5789 4.76845 16.5907C5.04467 16.6025 5.31824 16.5327 5.55497 16.3898L9.00029 14.2973L12.4456 16.3898C12.6823 16.5324 12.9558 16.6021 13.2319 16.5902C13.508 16.5782 13.7744 16.4852 13.998 16.3228C14.2215 16.1603 14.3922 15.9355 14.4888 15.6766C14.5853 15.4177 14.6035 15.136 14.5409 14.8669L13.6268 10.9125L16.6728 8.25469C16.8819 8.07301 17.0327 7.83361 17.1062 7.56655C17.1798 7.29948 17.1728 7.01664 17.0862 6.75352ZM12.3929 9.75024C12.2 9.918 12.0566 10.1352 11.9779 10.3783C11.8992 10.6215 11.8883 10.8816 11.9464 11.1305L12.7472 14.5983L9.72802 12.7645C9.50876 12.631 9.257 12.5604 9.00029 12.5604C8.74357 12.5604 8.49181 12.631 8.27255 12.7645L5.25333 14.5983L6.05419 11.1305C6.11223 10.8816 6.10133 10.6215 6.02266 10.3783C5.94399 10.1352 5.80054 9.918 5.60771 9.75024L2.9295 7.41375L6.45497 7.10859C6.71027 7.08674 6.95467 6.99527 7.16159 6.84414C7.3685 6.69301 7.52999 6.48803 7.62849 6.25149L9.00029 2.98266L10.3721 6.25149C10.4706 6.48803 10.6321 6.69301 10.839 6.84414C11.0459 6.99527 11.2903 7.08674 11.5456 7.10859L15.0711 7.41375L12.3929 9.75024Z" fill="white"/>
</svg>
