<svg width="28" height="28" viewBox="0 0 28 28" fill="none" xmlns="http://www.w3.org/2000/svg">
<path d="M4.66634 24.5002C4.02467 24.5002 3.47556 24.2719 3.01901 23.8153C2.56245 23.3588 2.33379 22.8093 2.33301 22.1668V9.3335C2.33301 8.69183 2.56167 8.14272 3.01901 7.68616C3.47634 7.22961 4.02545 7.00094 4.66634 7.00016H9.33301V4.66683C9.33301 4.02516 9.56167 3.47605 10.019 3.0195C10.4763 2.56294 11.0255 2.33427 11.6663 2.3335H16.333C16.9747 2.3335 17.5242 2.56216 17.9815 3.0195C18.4388 3.47683 18.6671 4.02594 18.6663 4.66683V7.00016H23.333C23.9747 7.00016 24.5242 7.22883 24.9815 7.68616C25.4388 8.1435 25.6671 8.69261 25.6663 9.3335V22.1668C25.6663 22.8085 25.4381 23.358 24.9815 23.8153C24.525 24.2727 23.9755 24.5009 23.333 24.5002H4.66634ZM4.66634 22.1668H23.333V9.3335H4.66634V22.1668ZM11.6663 7.00016H16.333V4.66683H11.6663V7.00016Z" fill="#09AEEF"/>
</svg>
