<svg width="24" height="24" viewBox="0 0 24 24" fill="none" xmlns="http://www.w3.org/2000/svg">
<path d="M11.7352 14.7131C12.6775 13.9211 13.3533 12.8585 13.6711 11.6693C13.989 10.4802 13.9334 9.22208 13.5119 8.0656C13.0904 6.90913 12.3234 5.91027 11.315 5.20447C10.3066 4.49868 9.10548 4.12012 7.8746 4.12012C6.64371 4.12012 5.44261 4.49868 4.43418 5.20447C3.42575 5.91027 2.65879 6.90913 2.23731 8.0656C1.81583 9.22208 1.76024 10.4802 2.07805 11.6693C2.39587 12.8585 3.07173 13.9211 4.01397 14.7131C2.54264 15.3784 1.26758 16.4116 0.311784 17.7131C0.13525 17.9537 0.0615074 18.2545 0.10678 18.5494C0.152052 18.8444 0.312631 19.1092 0.553191 19.2858C0.79375 19.4623 1.09459 19.536 1.38952 19.4908C1.68445 19.4455 1.94931 19.2849 2.12585 19.0444C2.78748 18.1407 3.65281 17.4058 4.65164 16.8992C5.65046 16.3926 6.75464 16.1286 7.8746 16.1286C8.99455 16.1286 10.0987 16.3926 11.0976 16.8992C12.0964 17.4058 12.9617 18.1407 13.6233 19.0444C13.7999 19.285 14.0648 19.4457 14.3598 19.4911C14.6548 19.5365 14.9558 19.4628 15.1965 19.2862C15.4372 19.1097 15.5979 18.8448 15.6432 18.5498C15.6886 18.2547 15.6149 17.9538 15.4383 17.7131C14.482 16.4118 13.2067 15.3786 11.7352 14.7131ZM4.1246 10.125C4.1246 9.3833 4.34453 8.65828 4.75659 8.0416C5.16864 7.42491 5.75431 6.94426 6.43953 6.66044C7.12476 6.37661 7.87876 6.30234 8.60619 6.44704C9.33361 6.59173 10.0018 6.94889 10.5262 7.47333C11.0507 7.99778 11.4078 8.66597 11.5525 9.3934C11.6972 10.1208 11.623 10.8748 11.3391 11.56C11.0553 12.2453 10.5747 12.8309 9.95799 13.243C9.3413 13.6551 8.61628 13.875 7.8746 13.875C6.88004 13.875 5.92621 13.4799 5.22295 12.7766C4.51969 12.0734 4.1246 11.1195 4.1246 10.125ZM23.4465 19.2815C23.3274 19.3691 23.1922 19.4323 23.0487 19.4675C22.9051 19.5028 22.7561 19.5094 22.61 19.487C22.4639 19.4646 22.3236 19.4137 22.1973 19.3371C22.0709 19.2605 21.9608 19.1598 21.8733 19.0406C21.2101 18.1387 20.3444 17.4051 19.3459 16.8987C18.3475 16.3923 17.2441 16.1273 16.1246 16.125C15.8262 16.125 15.5401 16.0065 15.3291 15.7955C15.1181 15.5845 14.9996 15.2984 14.9996 15C14.9996 14.7016 15.1181 14.4155 15.3291 14.2045C15.5401 13.9935 15.8262 13.875 16.1246 13.875C16.6767 13.8743 17.2219 13.7518 17.7212 13.516C18.2205 13.2803 18.6616 12.9372 19.013 12.5113C19.3643 12.0853 19.6173 11.5871 19.7538 11.052C19.8903 10.517 19.907 9.95848 19.8026 9.41628C19.6983 8.87408 19.4755 8.36161 19.1501 7.91548C18.8248 7.46935 18.405 7.10056 17.9206 6.83546C17.4363 6.57037 16.8994 6.4155 16.3482 6.38193C15.7971 6.34835 15.2454 6.43689 14.7324 6.64123C14.595 6.6975 14.4478 6.726 14.2993 6.72511C14.1509 6.72421 14.004 6.69394 13.8673 6.63603C13.7306 6.57811 13.6067 6.49371 13.5028 6.38769C13.3988 6.28166 13.3169 6.15611 13.2617 6.01827C13.2065 5.88042 13.1792 5.73302 13.1812 5.58456C13.1833 5.4361 13.2147 5.28951 13.2737 5.15325C13.3327 5.01699 13.418 4.89375 13.5249 4.79064C13.6317 4.68753 13.7579 4.60659 13.8962 4.55248C15.2202 4.02237 16.6898 3.98124 18.0414 4.43647C19.393 4.8917 20.5383 5.81351 21.2718 7.03663C22.0054 8.25974 22.2793 9.70417 22.0444 11.1109C21.8094 12.5177 21.0811 13.7947 19.9899 14.7131C21.4612 15.3784 22.7363 16.4116 23.6921 17.7131C23.8669 17.9539 23.9392 18.2541 23.8931 18.548C23.8471 18.842 23.6865 19.1057 23.4465 19.2815Z" fill="#093559"/>
</svg>
