<svg width="28" height="28" viewBox="0 0 28 28" fill="none" xmlns="http://www.w3.org/2000/svg">
<path d="M12.8245 17.2727C13.9972 16.492 14.8875 15.3546 15.3638 14.0287C15.8401 12.7028 15.8771 11.2589 15.4693 9.91036C15.0614 8.56185 14.2305 7.38038 13.0992 6.54066C11.968 5.70094 10.5966 5.24756 9.18774 5.24756C7.7789 5.24756 6.40747 5.70094 5.27624 6.54066C4.14501 7.38038 3.31404 8.56185 2.90621 9.91036C2.49839 11.2589 2.53536 12.7028 3.01166 14.0287C3.48796 15.3546 4.3783 16.492 5.55102 17.2727C3.42968 18.0546 1.61801 19.5014 0.386331 21.3973C0.321598 21.4935 0.276635 21.6016 0.254054 21.7153C0.231474 21.8291 0.231727 21.9462 0.254798 22.0598C0.27787 22.1734 0.323299 22.2814 0.388447 22.3773C0.453595 22.4732 0.537161 22.5552 0.634287 22.6186C0.731414 22.6819 0.840163 22.7254 0.954215 22.7463C1.06827 22.7673 1.18535 22.7653 1.29865 22.7406C1.41195 22.7159 1.51921 22.669 1.61419 22.6025C1.70918 22.5359 1.79 22.4512 1.85196 22.3532C2.64645 21.1312 3.7336 20.1271 5.01468 19.432C6.29577 18.7369 7.73021 18.3728 9.18774 18.3728C10.6453 18.3728 12.0797 18.7369 13.3608 19.432C14.6419 20.1271 15.729 21.1312 16.5235 22.3532C16.6519 22.5439 16.8501 22.6765 17.0754 22.7222C17.3007 22.768 17.535 22.7232 17.7275 22.5976C17.9201 22.472 18.0555 22.2757 18.1044 22.0511C18.1534 21.8265 18.112 21.5916 17.9891 21.3973C16.7575 19.5014 14.9458 18.0546 12.8245 17.2727ZM4.37524 11.8127C4.37524 10.8609 4.65749 9.93045 5.18629 9.13904C5.71509 8.34763 6.4667 7.7308 7.34607 7.36655C8.22544 7.0023 9.19308 6.907 10.1266 7.09269C11.0601 7.27838 11.9176 7.73673 12.5907 8.40977C13.2637 9.08281 13.7221 9.94032 13.9078 10.8738C14.0935 11.8074 13.9982 12.775 13.6339 13.6544C13.2697 14.5338 12.6528 15.2854 11.8614 15.8142C11.07 16.343 10.1396 16.6252 9.18774 16.6252C7.91183 16.6238 6.68859 16.1163 5.78638 15.2141C4.88418 14.3119 4.37668 13.0886 4.37524 11.8127ZM27.3593 22.608C27.1649 22.7348 26.9282 22.7791 26.7011 22.7313C26.4741 22.6835 26.2753 22.5475 26.1485 22.3532C25.355 21.1305 24.268 20.1259 22.9866 19.4311C21.7053 18.7363 20.2704 18.3733 18.8127 18.3752C18.5807 18.3752 18.3581 18.283 18.194 18.1189C18.0299 17.9548 17.9377 17.7323 17.9377 17.5002C17.9377 17.2682 18.0299 17.0456 18.194 16.8815C18.3581 16.7174 18.5807 16.6252 18.8127 16.6252C19.5215 16.6246 20.2213 16.4674 20.8622 16.1649C21.5031 15.8624 22.0693 15.4221 22.5204 14.8754C22.9714 14.3287 23.2961 13.6892 23.4713 13.0025C23.6465 12.3158 23.6679 11.5988 23.5339 10.9029C23.3999 10.2069 23.1139 9.5492 22.6962 8.97662C22.2786 8.40405 21.7396 7.93079 21.1178 7.59066C20.4961 7.25054 19.8068 7.05193 19.0994 7.00904C18.392 6.96616 17.6839 7.08004 17.0256 7.34256C16.9182 7.38896 16.8027 7.41338 16.6857 7.41437C16.5688 7.41536 16.4529 7.3929 16.3448 7.34832C16.2367 7.30374 16.1386 7.23795 16.0564 7.15482C15.9741 7.0717 15.9094 6.97294 15.8659 6.86437C15.8225 6.7558 15.8013 6.63962 15.8035 6.52271C15.8057 6.4058 15.8314 6.29052 15.8789 6.18368C15.9265 6.07685 15.9949 5.98063 16.0803 5.9007C16.1656 5.82078 16.2661 5.75877 16.3759 5.71835C17.8825 5.1175 19.5582 5.09587 21.0798 5.65765C22.6014 6.21943 23.861 7.3248 24.6157 8.76052C25.3704 10.1962 25.5667 11.8606 25.1667 13.4325C24.7666 15.0044 23.7986 16.3724 22.4495 17.2727C24.5708 18.0546 26.3825 19.5014 27.6141 21.3973C27.7409 21.5916 27.7852 21.8284 27.7374 22.0554C27.6897 22.2825 27.5536 22.4813 27.3593 22.608Z" fill="#09AEEF"/>
</svg>
